<svg width="32" height="32" viewBox="0 0 32 32" fill="none" xmlns="http://www.w3.org/2000/svg">
<circle cx="16" cy="16.0001" r="13.3333" fill="#F3BA2F"/>
<g clip-path="url(#clip0_257_368)">
<path d="M12.3749 14.5107L16 10.8857L19.627 14.5125L21.7363 12.4032L16 6.66675L10.2657 12.4013L12.3749 14.5107ZM6.66678 15.9998L8.77619 13.8904L10.8855 15.9997L8.77607 18.109L6.66678 15.9998ZM12.3749 17.4895L16 21.1145L19.6269 17.4877L21.7373 19.5959L21.7363 19.5971L16 25.3334L10.2655 19.599L10.2625 19.596L12.3749 17.4895ZM21.1149 16.0009L23.2243 13.8916L25.3336 16.0008L23.2242 18.1102L21.1149 16.0009Z" fill="white"/>
<path d="M18.1394 15.999H18.1403L15.9999 13.8586L14.4181 15.4404H14.418L14.2363 15.6223L13.8615 15.9972L13.8585 16.0001L13.8615 16.0031L15.9999 18.1417L18.1403 16.0013L18.1414 16.0001L18.1394 15.999Z" fill="white"/>
</g>
<defs>
<clipPath id="clip0_257_368">
<rect width="18.6667" height="18.6667" fill="white" transform="translate(6.66666 6.66675)"/>
</clipPath>
</defs>
</svg>
