<svg width="24" height="24" viewBox="0 0 24 24" fill="none" xmlns="http://www.w3.org/2000/svg">
<mask id="path-1-inside-1_188_726" fill="white">
<path d="M16.3403 1.99976H7.67031C4.28031 1.99976 2.00031 4.37976 2.00031 7.91976V16.0898C2.00031 19.6198 4.28031 21.9998 7.67031 21.9998H16.3403C19.7303 21.9998 22.0003 19.6198 22.0003 16.0898V7.91976C22.0003 4.37976 19.7303 1.99976 16.3403 1.99976Z"/>
</mask>
<path d="M16.3403 1.99976H7.67031C4.28031 1.99976 2.00031 4.37976 2.00031 7.91976V16.0898C2.00031 19.6198 4.28031 21.9998 7.67031 21.9998H16.3403C19.7303 21.9998 22.0003 19.6198 22.0003 16.0898V7.91976C22.0003 4.37976 19.7303 1.99976 16.3403 1.99976Z" fill="#282833"/>
<path d="M16.3403 0.999756H7.67031V2.99976H16.3403V0.999756ZM7.67031 0.999756C5.73252 0.999756 4.04399 1.68551 2.84189 2.94054C1.64336 4.19183 1.00031 5.93299 1.00031 7.91976H3.00031C3.00031 6.36652 3.49725 5.14769 4.28622 4.32397C5.07162 3.504 6.21809 2.99976 7.67031 2.99976V0.999756ZM1.00031 7.91976V16.0898H3.00031V7.91976H1.00031ZM1.00031 16.0898C1.00031 18.0722 1.64381 19.8109 2.8423 21.0607C4.04429 22.314 5.73257 22.9998 7.67031 22.9998V20.9998C6.21804 20.9998 5.07132 20.4955 4.28581 19.6764C3.4968 18.8536 3.00031 17.6373 3.00031 16.0898H1.00031ZM7.67031 22.9998H16.3403V20.9998H7.67031V22.9998ZM16.3403 22.9998C18.2782 22.9998 19.9645 22.3139 21.1642 21.0597C22.3601 19.8096 23.0003 18.071 23.0003 16.0898H21.0003C21.0003 17.6385 20.5055 18.8549 19.7189 19.6773C18.9361 20.4956 17.7924 20.9998 16.3403 20.9998V22.9998ZM23.0003 16.0898V7.91976H21.0003V16.0898H23.0003ZM23.0003 7.91976C23.0003 5.93421 22.3605 4.19317 21.1646 2.94145C19.9648 1.68568 18.2783 0.999756 16.3403 0.999756V2.99976C17.7923 2.99976 18.9358 3.50383 19.7185 4.32306C20.5051 5.14635 21.0003 6.36531 21.0003 7.91976H23.0003Z" fill="#636475" mask="url(#path-1-inside-1_188_726)"/>
</svg>
