<svg width="25" height="24" viewBox="0 0 25 24" fill="none" xmlns="http://www.w3.org/2000/svg">
<path d="M20.1562 7.36317L21.3281 13.5494L20.1562 19.2343H4.84375L3.67188 13.6741L4.84375 7.36317C4.45609 7.07212 6.96129 6.9013 8.62102 8.14735C10.6644 9.68146 12.0696 12.7588 12.5 13.0819C12.5665 13.032 12.827 11.0768 14.9766 9.46294C16.6182 8.23048 20.3775 7.19704 20.1562 7.36317Z" fill="#FFF5F5"/>
<path d="M20.1562 19.2344L21.3281 13.5496L20.1562 7.36331C20.3775 7.19714 16.6182 8.23058 14.9766 9.46308C12.827 11.0769 12.5665 13.0321 12.5 13.0821V19.2344H20.1562Z" fill="#E3E7EA"/>
<path d="M17.3964 9.43762C17.3748 9.45379 17.3489 9.47325 17.3248 9.49126C17.3092 9.50302 17.3403 9.47969 17.3964 9.43762Z" fill="#00A66C"/>
<path d="M4.84375 5.46484V19.2344H4.25781C3.28512 19.2344 2.5 18.4492 2.5 17.4766V5.75781C2.5 5.7109 2.5 5.66402 2.51172 5.61719L4.84375 5.46484Z" fill="#F03800"/>
<path d="M22.5 5.75769V17.4764C22.5 18.4491 21.7149 19.2343 20.7422 19.2343H20.1563V6.6366L22.4883 5.61707C22.5 5.6639 22.5 5.71078 22.5 5.75769Z" fill="#CD0000"/>
<path d="M22.4889 5.61719C10.8949 14.3161 24.1492 4.34215 12.5006 13.082C11.4833 12.3188 16.1468 15.847 2.51231 5.61719C2.58262 4.70309 3.33266 4 4.2584 4L8.88305 5.4177L12.5006 10.1524L15.1159 6.14008L20.7428 4C21.6685 4 22.4186 4.70309 22.4889 5.61719Z" fill="#FF641A"/>
<path d="M12.5 13.082C12.5032 13.0844 12.5029 13.0842 12.5 13.082C13.3177 12.4685 21.1239 6.64086 22.4883 5.61719C22.418 4.70309 21.668 4 20.7422 4L15.1154 6.14004L12.5 10.1523V13.082Z" fill="#F03800"/>
<path d="M20.7422 4L12.5 10.1523L4.25781 4H20.7422Z" fill="#FFF5F5"/>
<path d="M20.7422 4H12.5V10.1523L20.7422 4Z" fill="#E3E7EA"/>
</svg>
