<svg width="96" height="96" viewBox="0 0 96 96" fill="none" xmlns="http://www.w3.org/2000/svg">
<path d="M87.9999 47.9991C87.9999 70.0951 70.0919 87.9991 47.9999 87.9991C25.9079 87.9991 7.99988 70.0951 7.99988 47.9991C7.99988 25.9111 25.9079 7.99905 47.9999 7.99905C70.0919 7.99905 87.9999 25.9111 87.9999 47.9991" fill="#0B68F4"/>
<path fill-rule="evenodd" clip-rule="evenodd" d="M51.4803 50.5228C51.4803 52.4508 49.9083 54.0228 47.9803 54.0228C46.0523 54.0228 44.4803 52.4508 44.4803 50.5228V32.8428C44.4803 30.9148 46.0523 29.3428 47.9803 29.3428C49.9083 29.3428 51.4803 30.9148 51.4803 32.8428V50.5228ZM44.5 63.2139C44.5 61.2859 46.064 59.7139 47.98 59.7139C49.952 59.7139 51.52 61.2859 51.52 63.2139C51.52 65.1419 49.952 66.7139 48.02 66.7139C46.08 66.7139 44.5 65.1419 44.5 63.2139Z" fill="white"/>
</svg>
