<svg width="24" height="24" viewBox="0 0 24 24" fill="none" xmlns="http://www.w3.org/2000/svg">
<path d="M12.7217 5.01564L12.4404 5.11876C12.4217 5.08126 12.4123 5.05314 12.3935 5.01564C12.3935 5.01564 10.8748 2.04376 7.43417 2.37189C3.99354 2.70001 5.99979 7.35001 6.27167 7.65939C6.54355 7.96876 7.43417 9.11251 6.6373 9.63752C5.84042 10.1625 5.16542 9.53439 4.49042 8.31564C3.81542 7.09689 1.93104 8.15626 3.17792 10.2938C4.41542 12.4313 6.32792 12.7594 7.62167 11.9438C8.91542 11.1375 9.53417 8.91564 8.34355 7.32189C7.15292 5.72814 6.75917 3.26251 9.14042 4.35001C10.2279 4.95001 10.7248 6.22501 10.7904 6.66564L9.40292 15.5813L20.1654 21.8531L20.5498 21.525L21.2436 10.6313L12.7217 5.01564ZM16.4435 14.2031L15.6092 16.1813L14.7185 14.2031L12.7029 13.35L14.6998 12.4969L15.5342 10.5188L16.4248 12.4969L18.4404 13.35L16.4435 14.2031ZM17.8029 11.4656L13.6592 7.05939L19.7154 10.8375L17.8029 11.4656Z" fill="#E9992A"/>
</svg>
