<svg width="48" height="48" viewBox="0 0 48 48" fill="none" xmlns="http://www.w3.org/2000/svg">
<path d="M8 23.4512C8 22.6918 8.56431 22.0642 9.29646 21.9649L9.5 21.9512H39.5C40.3284 21.9512 41 22.6227 41 23.4512C41 24.2106 40.4357 24.8382 39.7035 24.9375L39.5 24.9512L9.5 24.9512C8.67157 24.9512 8 24.2796 8 23.4512Z" fill="white"/>
<path d="M26.342 12.4654C25.755 11.8809 25.7529 10.9312 26.3374 10.3441C26.8688 9.81044 27.7021 9.76023 28.2902 10.1947L28.4588 10.3395L40.5588 22.3875C41.094 22.9205 41.1427 23.7567 40.7048 24.3449L40.5589 24.5133L28.4589 36.5633C27.8719 37.1479 26.9221 37.1459 26.3375 36.559C25.8061 36.0253 25.7594 35.1919 26.1963 34.6056L26.3419 34.4376L37.374 23.4499L26.342 12.4654Z" fill="white"/>
</svg>
