<svg width="32" height="32" viewBox="0 0 32 32" fill="none" xmlns="http://www.w3.org/2000/svg">
<path fill-rule="evenodd" clip-rule="evenodd" d="M12.8033 20.1823C12.5473 20.1823 12.2913 20.085 12.0966 19.889C11.7059 19.4983 11.7059 18.8663 12.0966 18.4756L18.4859 12.0863C18.8766 11.6956 19.5086 11.6956 19.8993 12.0863C20.2899 12.477 20.2899 13.109 19.8993 13.4996L13.5099 19.889C13.3153 20.085 13.0593 20.1823 12.8033 20.1823Z" fill="#E9992A"/>
<path fill-rule="evenodd" clip-rule="evenodd" d="M19.1952 20.1862C18.9392 20.1862 18.6832 20.0888 18.4886 19.8928L12.0939 13.4968C11.7032 13.1062 11.7032 12.4742 12.0939 12.0835C12.4859 11.6928 13.1179 11.6928 13.5072 12.0835L19.9019 18.4795C20.2926 18.8702 20.2926 19.5022 19.9019 19.8928C19.7072 20.0888 19.4499 20.1862 19.1952 20.1862Z" fill="#E9992A"/>
<path fill-rule="evenodd" clip-rule="evenodd" d="M10.22 4.66669C6.84663 4.66669 4.66663 6.97735 4.66663 10.5547V21.4454C4.66663 25.0227 6.84663 27.3334 10.22 27.3334H21.7773C25.152 27.3334 27.3333 25.0227 27.3333 21.4454V10.5547C27.3333 6.97735 25.152 4.66669 21.7786 4.66669H10.22ZM21.7773 29.3334H10.22C5.70129 29.3334 2.66663 26.1627 2.66663 21.4454V10.5547C2.66663 5.83735 5.70129 2.66669 10.22 2.66669H21.7786C26.2973 2.66669 29.3333 5.83735 29.3333 10.5547V21.4454C29.3333 26.1627 26.2973 29.3334 21.7773 29.3334Z" fill="#E9992A"/>
</svg>
