<svg width="24" height="24" viewBox="0 0 24 24" fill="none" xmlns="http://www.w3.org/2000/svg">
<path fill-rule="evenodd" clip-rule="evenodd" d="M18.2025 6.05063V14.1519C18.2025 16.389 16.389 18.2025 14.1519 18.2025H6.05063C3.81353 18.2025 2 16.389 2 14.1519V6.05063C2 3.81353 3.81353 2 6.05063 2H14.1519C16.389 2 18.2025 3.81353 18.2025 6.05063ZM3.51899 6.05063V14.1519C3.51899 14.8233 3.78571 15.4673 4.26049 15.942C4.73526 16.4168 5.3792 16.6835 6.05063 16.6835H14.1519C15.5501 16.6835 16.6835 15.5501 16.6835 14.1519V6.05063C16.6835 4.65244 15.5501 3.51899 14.1519 3.51899H6.05063C4.65244 3.51899 3.51899 4.65244 3.51899 6.05063Z" fill="#E9992A"/>
<path d="M21.2405 8.3291C20.8233 8.33456 20.4865 8.67142 20.481 9.0886V17.1899C20.4755 19.0052 19.0052 20.4754 17.1899 20.481H9.08861C8.66915 20.481 8.32911 20.821 8.32911 21.2405C8.32911 21.66 8.66915 22 9.08861 22H17.1899C19.8464 22 22 19.8464 22 17.1899V9.0886C21.9945 8.67142 21.6577 8.33456 21.2405 8.3291Z" fill="#E9992A"/>
</svg>
