<svg width="96" height="96" viewBox="0 0 96 96" fill="none" xmlns="http://www.w3.org/2000/svg">
<path d="M18.8903 84.669C18.8383 84.669 18.7903 84.669 18.7343 84.665C17.4743 84.601 16.2383 84.329 15.0623 83.8531C9.2743 81.5011 6.4823 74.889 8.8303 69.105L38.1143 17.801C39.1223 15.977 40.6503 14.449 42.5143 13.417C47.9743 10.393 54.8783 12.381 57.8983 17.837L86.9903 68.749C87.6383 70.273 87.9143 71.513 87.9823 72.777C88.1383 75.801 87.1063 78.701 85.0823 80.945C83.0583 83.189 80.2783 84.513 77.2583 84.665L19.1783 84.669H18.8903Z" fill="#E74C3C"/>
<path fill-rule="evenodd" clip-rule="evenodd" d="M44.498 40.0831C44.498 38.1551 46.07 36.5831 47.998 36.5831C49.926 36.5831 51.498 38.1551 51.498 40.0831V51.3951C51.498 53.3271 49.926 54.8951 47.998 54.8951C46.07 54.8951 44.498 53.3271 44.498 51.3951V40.0831ZM44.498 65.0796C44.498 63.1396 46.07 61.5596 47.998 61.5596C49.926 61.5596 51.498 63.1196 51.498 65.0356C51.498 67.0076 49.926 68.5796 47.998 68.5796C46.07 68.5796 44.498 67.0076 44.498 65.0796Z" fill="white"/>
</svg>
