<svg width="24" height="24" viewBox="0 0 24 24" fill="none" xmlns="http://www.w3.org/2000/svg">
<path fill-rule="evenodd" clip-rule="evenodd" d="M6.62073 2.00012H6.67775C7.26368 2.00012 7.74492 2.00011 8.13811 2.02781C8.54518 2.0565 8.91779 2.11771 9.27397 2.27064C10.0633 2.60954 10.6916 3.23983 11.0292 4.03014C11.1814 4.38654 11.2424 4.75943 11.2709 5.16719C11.2986 5.5612 11.2985 6.04352 11.2985 6.63116V6.6879C11.2985 7.27555 11.2986 7.75786 11.2709 8.15187C11.2424 8.55964 11.1814 8.93252 11.0292 9.28893C10.6916 10.0792 10.0633 10.7095 9.27397 11.0484C8.91779 11.2013 8.54518 11.2626 8.13811 11.2912C7.74491 11.319 7.26366 11.3189 6.67772 11.3189H6.62076C6.03482 11.3189 5.55357 11.319 5.16037 11.2912C4.7533 11.2626 4.38069 11.2013 4.02451 11.0484C3.23518 10.7095 2.60686 10.0792 2.26932 9.28893C2.1171 8.93252 2.05612 8.55964 2.02754 8.15187C1.99993 7.75787 1.99993 7.27556 1.99994 6.68793V6.63114C1.99993 6.0435 1.99993 5.5612 2.02754 5.16719C2.05612 4.75943 2.1171 4.38654 2.26932 4.03014C2.60686 3.23983 3.23517 2.60954 4.02451 2.27064C4.38069 2.11771 4.7533 2.0565 5.16037 2.02781C5.55356 2.00011 6.0348 2.00012 6.62073 2.00012ZM5.27265 3.62131C4.94978 3.64406 4.77773 3.6857 4.65474 3.73851C4.24338 3.91513 3.91501 4.24403 3.73838 4.65758C3.68542 4.78159 3.64379 4.9548 3.62108 5.27889C3.59784 5.61041 3.59738 6.03654 3.59738 6.65953C3.59738 7.28252 3.59784 7.70865 3.62108 8.04018C3.64379 8.36427 3.68542 8.53747 3.73838 8.66149C3.91501 9.07504 4.24338 9.40394 4.65474 9.58056C4.77773 9.63336 4.94978 9.67501 5.27265 9.69776C5.60303 9.72104 6.02779 9.7215 6.64924 9.7215C7.27069 9.7215 7.69544 9.72104 8.02583 9.69776C8.3487 9.67501 8.52075 9.63336 8.64374 9.58056C9.0551 9.40394 9.38347 9.07504 9.5601 8.66149C9.61306 8.53747 9.65469 8.36427 9.6774 8.04018C9.70064 7.70865 9.7011 7.28252 9.7011 6.65953C9.7011 6.03654 9.70064 5.61041 9.6774 5.27889C9.65469 4.9548 9.61306 4.78159 9.5601 4.65758C9.38347 4.24402 9.0551 3.91513 8.64374 3.73851C8.52075 3.6857 8.3487 3.64406 8.02583 3.62131C7.69544 3.59803 7.27069 3.59757 6.64924 3.59757C6.02779 3.59757 5.60304 3.59803 5.27265 3.62131ZM17.3221 2.00012H17.3791C17.9651 2.00012 18.4463 2.00011 18.8395 2.02781C19.2466 2.0565 19.6192 2.11771 19.9754 2.27064C20.7647 2.60954 21.393 3.23983 21.7306 4.03014C21.8828 4.38654 21.9438 4.75943 21.9723 5.16719C22 5.56121 21.9999 6.04354 21.9999 6.63121V6.68786C21.9999 7.27552 22 7.75785 21.9723 8.15187C21.9438 8.55964 21.8828 8.93252 21.7306 9.28893C21.393 10.0792 20.7647 10.7095 19.9754 11.0484C19.6192 11.2013 19.2466 11.2626 18.8395 11.2912C18.4463 11.319 17.9651 11.3189 17.3791 11.3189H17.3222C16.7362 11.3189 16.255 11.319 15.8618 11.2912C15.4547 11.2626 15.0821 11.2013 14.7259 11.0484C13.9366 10.7095 13.3083 10.0792 12.9707 9.28893C12.8185 8.93252 12.7575 8.55964 12.7289 8.15187C12.7013 7.75786 12.7013 7.27555 12.7013 6.6879V6.63116C12.7013 6.04352 12.7013 5.5612 12.7289 5.16719C12.7575 4.75943 12.8185 4.38654 12.9707 4.03014C13.3083 3.23983 13.9366 2.60954 14.7259 2.27064C15.0821 2.11771 15.4547 2.0565 15.8618 2.02781C16.255 2.00011 16.7362 2.00012 17.3221 2.00012ZM15.974 3.62131C15.6512 3.64406 15.4791 3.6857 15.3561 3.73851C14.9448 3.91513 14.6164 4.24402 14.4398 4.65758C14.3868 4.78159 14.3452 4.9548 14.3225 5.27889C14.2992 5.61041 14.2988 6.03654 14.2988 6.65953C14.2988 7.28252 14.2992 7.70865 14.3225 8.04018C14.3452 8.36427 14.3868 8.53747 14.4398 8.66149C14.6164 9.07504 14.9448 9.40394 15.3561 9.58056C15.4791 9.63336 15.6512 9.67501 15.974 9.69776C16.3044 9.72104 16.7292 9.7215 17.3506 9.7215C17.9721 9.7215 18.3968 9.72104 18.7272 9.69776C19.0501 9.67501 19.2221 9.63336 19.3451 9.58056C19.7565 9.40394 20.0849 9.07504 20.2615 8.66149C20.3145 8.53747 20.3561 8.36427 20.3788 8.04018C20.402 7.70865 20.4025 7.28252 20.4025 6.65953C20.4025 6.03654 20.402 5.61041 20.3788 5.27889C20.3561 4.9548 20.3145 4.78159 20.2615 4.65758C20.0849 4.24402 19.7565 3.91513 19.3451 3.73851C19.2221 3.6857 19.0501 3.64406 18.7272 3.62131C18.3968 3.59803 17.9721 3.59757 17.3506 3.59757C16.7292 3.59757 16.3044 3.59803 15.974 3.62131ZM6.62076 12.6813H6.67772C7.26366 12.6813 7.74491 12.6813 8.13811 12.709C8.54518 12.7377 8.91779 12.7989 9.27397 12.9518C10.0633 13.2907 10.6916 13.921 11.0292 14.7113C11.1814 15.0677 11.2424 15.4406 11.2709 15.8484C11.2986 16.2424 11.2985 16.7247 11.2985 17.3123V17.3691C11.2985 17.9567 11.2986 18.439 11.2709 18.8331C11.2424 19.2408 11.1814 19.6137 11.0292 19.9701C10.6916 20.7604 10.0633 21.3907 9.27397 21.7296C8.91779 21.8825 8.54518 21.9437 8.13811 21.9724C7.74492 22.0001 7.26369 22.0001 6.67776 22.0001H6.62072C6.03479 22.0001 5.55356 22.0001 5.16037 21.9724C4.75329 21.9437 4.38069 21.8825 4.02451 21.7296C3.23518 21.3907 2.60686 20.7604 2.26932 19.9701C2.1171 19.6137 2.05612 19.2408 2.02754 18.8331C1.99993 18.439 1.99993 17.9567 1.99994 17.3691V17.3123C1.99993 16.7247 1.99993 16.2424 2.02754 15.8484C2.05612 15.4406 2.1171 15.0677 2.26932 14.7113C2.60686 13.921 3.23517 13.2907 4.02451 12.9518C4.38069 12.7989 4.7533 12.7377 5.16037 12.709C5.55357 12.6813 6.03482 12.6813 6.62076 12.6813ZM5.27265 14.3025C4.94978 14.3252 4.77773 14.3669 4.65474 14.4197C4.24338 14.5963 3.91501 14.9252 3.73838 15.3388C3.68542 15.4628 3.64379 15.636 3.62108 15.9601C3.59784 16.2916 3.59738 16.7177 3.59738 17.3407C3.59738 17.9637 3.59784 18.3898 3.62108 18.7214C3.64379 19.0455 3.68542 19.2187 3.73838 19.3427C3.91501 19.7562 4.24338 20.0851 4.65474 20.2617C4.77773 20.3145 4.94978 20.3562 5.27265 20.3789C5.60304 20.4022 6.02779 20.4027 6.64924 20.4027C7.27068 20.4027 7.69544 20.4022 8.02583 20.3789C8.3487 20.3562 8.52075 20.3145 8.64374 20.2617C9.0551 20.0851 9.38347 19.7562 9.5601 19.3427C9.61306 19.2187 9.65469 19.0454 9.6774 18.7214C9.70064 18.3898 9.7011 17.9637 9.7011 17.3407C9.7011 16.7177 9.70064 16.2916 9.6774 15.9601C9.65469 15.636 9.61306 15.4628 9.5601 15.3388C9.38347 14.9252 9.0551 14.5963 8.64374 14.4197C8.52075 14.3669 8.3487 14.3252 8.02583 14.3025C7.69544 14.2792 7.27069 14.2787 6.64924 14.2787C6.02779 14.2787 5.60303 14.2792 5.27265 14.3025Z" fill="#E9992A"/>
<path d="M12.7667 13.9171C12.7667 13.2819 13.2817 12.767 13.9169 12.767H14.6837C15.3189 12.767 15.8338 13.2819 15.8338 13.9171V14.6839C15.8338 15.3191 15.3189 15.8341 14.6837 15.8341H13.9169C13.2817 15.8341 12.7667 15.3191 12.7667 14.6839V13.9171Z" fill="#E9992A"/>
<path d="M21.968 13.9171C21.968 13.2819 21.4531 12.767 20.8178 12.767H20.0511C19.4159 12.767 18.9009 13.2819 18.9009 13.9171V14.6839C18.9009 15.3191 19.4159 15.8341 20.0511 15.8341H20.8178C21.4531 15.8341 21.968 15.3191 21.968 14.6839V13.9171Z" fill="#E9992A"/>
<path d="M15.8338 16.9842C15.8338 16.349 16.3488 15.8341 16.984 15.8341H17.7508C18.386 15.8341 18.9009 16.349 18.9009 16.9842V17.751C18.9009 18.3862 18.386 18.9012 17.7508 18.9012H16.984C16.3488 18.9012 15.8338 18.3862 15.8338 17.751V16.9842Z" fill="#E9992A"/>
<path d="M18.9009 20.0513C18.9009 19.4161 19.4159 18.9012 20.0511 18.9012H20.8178C21.4531 18.9012 21.968 19.4161 21.968 20.0513V20.8181C21.968 21.4533 21.4531 21.9682 20.8178 21.9682H20.0511C19.4159 21.9682 18.9009 21.4533 18.9009 20.8181V20.0513Z" fill="#E9992A"/>
<path d="M15.8338 20.0513C15.8338 19.4161 15.3189 18.9012 14.6837 18.9012H13.9169C13.2817 18.9012 12.7667 19.4161 12.7667 20.0513V20.8181C12.7667 21.4533 13.2817 21.9682 13.9169 21.9682H14.6837C15.3189 21.9682 15.8338 21.4533 15.8338 20.8181V20.0513Z" fill="#E9992A"/>
<path d="M5.099 6.24953C5.099 5.61431 5.61394 5.09937 6.24916 5.09937H7.01593C7.65115 5.09937 8.16609 5.61431 8.16609 6.24953V7.0163C8.16609 7.65151 7.65115 8.16646 7.01593 8.16646H6.24916C5.61394 8.16646 5.099 7.65151 5.099 7.0163V6.24953Z" fill="#E9992A"/>
<path d="M5.099 16.9844C5.099 16.3491 5.61394 15.8342 6.24916 15.8342H7.01593C7.65115 15.8342 8.16609 16.3491 8.16609 16.9844V17.7511C8.16609 18.3863 7.65115 18.9013 7.01593 18.9013H6.24916C5.61394 18.9013 5.099 18.3863 5.099 17.7511V16.9844Z" fill="#E9992A"/>
<path d="M15.8338 6.24953C15.8338 5.61431 16.3488 5.09937 16.984 5.09937H17.7508C18.386 5.09937 18.9009 5.61431 18.9009 6.24953V7.0163C18.9009 7.65151 18.386 8.16646 17.7508 8.16646H16.984C16.3488 8.16646 15.8338 7.65151 15.8338 7.0163V6.24953Z" fill="#E9992A"/>
</svg>
