<svg width="24" height="24" viewBox="0 0 24 24" fill="none" xmlns="http://www.w3.org/2000/svg">
<path d="M7.32197 2.74689C7.5376 2.64376 7.75322 2.54064 7.96885 2.44689C8.05322 2.49377 8.11885 2.41877 8.18447 2.40002C9.27197 2.20314 10.1813 2.52189 10.8188 3.42189C11.447 4.30314 11.447 5.25939 10.9032 6.20626C10.847 6.30939 10.847 6.37502 10.8938 6.47814C11.3157 7.37814 11.7376 8.27814 12.1595 9.18752C12.2626 9.41252 12.3376 9.44064 12.5626 9.33752C12.8626 9.19689 13.1626 9.05627 13.4626 8.91564C13.7157 8.80314 13.9407 8.88752 14.0626 9.13127C14.297 9.61877 14.5314 10.1156 14.7563 10.6125C14.8782 10.875 14.7845 11.0906 14.522 11.2125C14.2313 11.3531 13.9407 11.4844 13.6595 11.6156C13.4157 11.7281 13.3876 11.8125 13.5001 12.0469C14.3157 13.8 15.1314 15.5438 15.947 17.2969C16.1251 17.6813 16.4251 17.7281 16.7251 17.4375C18.5064 15.7219 19.0407 13.0781 18.0282 10.8281C17.2032 9.00002 16.3407 7.19064 15.497 5.38127C15.4126 5.20314 15.3751 5.02502 15.5439 4.87502C15.7032 4.73439 15.8532 4.79064 16.022 4.87502C17.1845 5.47502 18.3564 6.07501 19.5189 6.67501C20.1001 6.97502 20.6907 7.25627 21.2626 7.58439C21.3001 7.65939 21.3282 7.72502 21.3657 7.80001C21.3376 8.02501 21.197 8.16564 20.9907 8.25002C20.6814 8.37189 20.3907 8.53127 20.0814 8.66252C19.9595 8.70939 19.9407 8.76564 19.997 8.87814C20.1282 9.13127 20.2407 9.39377 20.3626 9.65627C20.8407 10.6594 21.1501 11.7094 21.1876 12.825C21.3095 16.0031 20.0814 18.525 17.4939 20.3813C17.3064 20.5125 17.0814 20.6063 16.9126 20.775C16.4814 20.9813 16.0501 21.1781 15.6095 21.3844C15.5814 21.3469 15.5532 21.375 15.5251 21.3844C15.2439 21.4688 14.972 21.5719 14.6907 21.6375C12.6657 22.0969 10.7157 21.8813 8.86885 20.9438C7.20947 20.1 5.95322 18.8438 5.11885 17.175C4.94072 16.8188 4.77197 16.4625 4.60322 16.0969C4.5376 15.9563 4.48135 15.9469 4.3501 16.0125C4.05947 16.1625 3.75947 16.2844 3.46885 16.4344C3.2626 16.5375 3.0751 16.5563 2.87822 16.4344C2.84072 16.35 2.80322 16.2656 2.75635 16.1813C3.02822 15 3.3001 13.8094 3.57197 12.6281C3.74072 11.8875 3.90947 11.1563 4.06885 10.4156C4.10635 10.2469 4.18135 10.1156 4.36885 10.0969C4.56572 10.0688 4.67822 10.1719 4.7626 10.3313C4.79072 10.3781 4.80947 10.425 4.82822 10.4719C5.6251 12.1781 6.4126 13.875 7.20947 15.5813C7.36885 15.9281 7.54697 16.275 7.77197 16.5844C9.1501 18.45 10.997 19.2656 13.2938 19.0781C13.6407 19.05 13.7907 18.75 13.6407 18.4313C12.8157 16.6594 11.9907 14.8969 11.1657 13.125C11.0626 12.9094 10.9782 12.8813 10.7626 12.9844C10.472 13.1156 10.1813 13.2563 9.9001 13.3875C9.60947 13.5188 9.39385 13.4438 9.25322 13.1438C9.0376 12.6844 8.82197 12.2156 8.60635 11.7563C8.46572 11.4469 8.54072 11.2406 8.84072 11.0906C9.12197 10.95 9.40322 10.8281 9.68447 10.6969C9.92822 10.5844 9.94697 10.5094 9.84385 10.2844C9.42197 9.38439 9.00947 8.49377 8.59697 7.59377C8.54072 7.48127 8.4751 7.43439 8.35322 7.41564C7.30322 7.21877 6.58135 6.60939 6.3001 5.57814C6.02822 4.58439 6.31885 3.71252 7.06885 3.00002C7.15322 2.89689 7.2751 2.85939 7.32197 2.74689Z" fill="#E9992A"/>
</svg>
