<svg width="96" height="96" viewBox="0 0 96 96" fill="none" xmlns="http://www.w3.org/2000/svg">
<path d="M88 47.999C88 70.095 70.092 87.999 48 87.999C25.908 87.999 8 70.095 8 47.999C8 25.911 25.908 7.99902 48 7.99902C70.092 7.99902 88 25.911 88 47.999Z" fill="#049B13"/>
<path d="M44.994 61.986C44.098 61.986 43.202 61.646 42.518 60.962L33.026 51.47C31.658 50.102 31.658 47.886 33.026 46.522C34.394 45.154 36.606 45.15 37.974 46.518L44.994 53.538L61.506 37.026C62.874 35.658 65.086 35.658 66.454 37.026C67.822 38.394 67.822 40.61 66.454 41.978L47.47 60.962C46.786 61.646 45.89 61.986 44.994 61.986Z" fill="white"/>
</svg>
