<svg width="24" height="24" viewBox="0 0 24 24" fill="none" xmlns="http://www.w3.org/2000/svg">
<path d="M12 22.2281C17.6488 22.2281 22.2281 17.6488 22.2281 12C22.2281 6.35117 17.6488 1.77188 12 1.77188C6.35117 1.77188 1.77188 6.35117 1.77188 12C1.77188 17.6488 6.35117 22.2281 12 22.2281Z" fill="#3096FF"/>
<path d="M12 21.1781C17.0689 21.1781 21.1781 17.0689 21.1781 12C21.1781 6.93105 17.0689 2.82187 12 2.82187C6.93105 2.82187 2.82187 6.93105 2.82187 12C2.82187 17.0689 6.93105 21.1781 12 21.1781Z" fill="#252939"/>
<path d="M16.2563 8.15625L15.9 10.4438L17.5875 12.0375C18.45 12.8531 18 14.2969 16.8375 14.4844L14.55 14.85L13.5563 16.95C13.05 18.0187 11.5406 18.0375 10.9969 16.9875L9.93751 14.925L7.64064 14.625C6.46876 14.475 5.98126 13.0406 6.81564 12.2062L8.43751 10.5656L8.00626 8.2875C7.79064 7.125 9.00001 6.21563 10.05 6.75L12.1219 7.8L14.1563 6.68438C15.1969 6.12188 16.4344 6.98438 16.2563 8.15625Z" fill="#3096FF"/>
<path d="M5.16562 5.74687C5.16562 5.74687 4.78125 7.63125 6.2625 9.39375C6.2625 9.39375 4.35 8.87812 3.64687 7.94062C3.64687 7.94062 3.10312 6.10312 5.16562 5.74687Z" fill="#3096FF"/>
<path d="M15.75 3.68438C15.75 3.68438 13.8375 3.9 12.6188 5.85C12.6188 5.85 12.525 3.87188 13.1906 2.91563C13.1906 2.91563 14.775 1.82813 15.75 3.68438Z" fill="#3096FF"/>
<path d="M20.9813 13.1156C20.9813 13.1156 20.1844 11.3625 17.9531 10.8094C17.9531 10.8094 19.8 10.1063 20.9156 10.4438C20.9156 10.4531 22.4438 11.6156 20.9813 13.1156Z" fill="#3096FF"/>
<path d="M13.6313 21.0094C13.6313 21.0094 15.0469 19.7062 14.8875 17.4187C14.8875 17.4187 16.125 18.9562 16.1531 20.1281C16.1438 20.1187 15.5063 21.9281 13.6313 21.0094Z" fill="#3096FF"/>
<path d="M3.85312 16.4531C3.34687 17.2875 6.26249 16.9406 12.2062 12.9094C12.2062 12.9094 10.4812 16.425 5.86874 19.0313C5.86874 19.0219 3.55312 18.525 3.85312 16.4531Z" fill="#3096FF"/>
</svg>
