<svg width="24" height="24" viewBox="0 0 24 24" fill="none" xmlns="http://www.w3.org/2000/svg">
<path d="M12 22.2281C17.6488 22.2281 22.2281 17.6488 22.2281 12C22.2281 6.35117 17.6488 1.77188 12 1.77188C6.35117 1.77188 1.77188 6.35117 1.77188 12C1.77188 17.6488 6.35117 22.2281 12 22.2281Z" fill="#FC8D17"/>
<path d="M12 21.1781C17.0689 21.1781 21.1781 17.0689 21.1781 12C21.1781 6.93106 17.0689 2.82187 12 2.82187C6.93106 2.82187 2.82187 6.93106 2.82187 12C2.82187 17.0689 6.93106 21.1781 12 21.1781Z" fill="#252939"/>
<path d="M8.15626 8.34375L2.95313 11.5875L2.47501 13.7063L3.29063 14.7L8.34376 8.57813L8.15626 8.34375Z" fill="#FC8D17"/>
<path d="M3.73126 16.9594L12.1125 8.34374L12.5531 11.0812L18.4594 4.88437L19.2938 6.08437L11.475 17.2031L11.0906 15.0562L7.67814 20.4469L4.86564 18.2531L3.73126 16.9594Z" fill="#FC8D17"/>
<path d="M11.7469 21.3375L16.7063 14.0344L17.0531 13.9312L14.6344 21.3375L12.525 21.8531L11.7469 21.3375Z" fill="#FC8D17"/>
</svg>
