<svg width="24" height="24" viewBox="0 0 24 24" fill="none" xmlns="http://www.w3.org/2000/svg">
<path d="M12 22.2281C17.6488 22.2281 22.2281 17.6488 22.2281 12C22.2281 6.35117 17.6488 1.77188 12 1.77188C6.35117 1.77188 1.77188 6.35117 1.77188 12C1.77188 17.6488 6.35117 22.2281 12 22.2281Z" fill="#6C9526"/>
<path d="M12 21.1781C17.0689 21.1781 21.1781 17.0689 21.1781 12C21.1781 6.93106 17.0689 2.82187 12 2.82187C6.93106 2.82187 2.82187 6.93106 2.82187 12C2.82187 17.0689 6.93106 21.1781 12 21.1781Z" fill="#252939"/>
<path d="M2.25 13.5281C2.25 12.45 2.25 11.3813 2.25 10.3031C2.42812 10.2469 2.40938 10.0875 2.44688 9.94687C3.44063 5.91562 5.93437 3.36562 9.95625 2.29688C10.1344 2.25 10.3969 2.33438 10.4906 2.0625C11.5031 2.0625 12.5156 2.0625 13.5375 2.0625C13.6219 2.2875 13.8281 2.2125 13.9875 2.25C18.075 3.19688 20.625 5.72812 21.7313 9.75937C21.7969 10.0031 21.6469 10.3125 21.9562 10.4719C21.9562 11.4844 21.9562 12.4969 21.9562 13.5187C21.6562 13.7719 21.7031 14.1562 21.6094 14.4844C20.5875 17.8969 18.3938 20.1656 15.0281 21.3094C14.5406 21.4781 13.9875 21.4406 13.5375 21.75C12.525 21.75 11.5125 21.75 10.4906 21.75C10.3125 21.4406 9.96562 21.5063 9.70312 21.4406C6.525 20.5969 4.32187 18.6375 3.00937 15.6562C2.7 14.9812 2.50313 14.25 2.25 13.5281ZM10.5094 10.2C10.3781 9.80625 10.5094 9.51563 10.5656 9.21563C10.9031 7.29375 10.7812 5.44687 9.85312 3.68437C9.5625 3.13125 9.28125 3 8.6625 3.25313C3.5625 5.2875 1.3125 11.3062 3.84375 16.1906C4.10625 16.7062 4.41563 16.9125 5.00625 16.9313C7.07812 16.9875 8.8125 16.2375 10.3875 14.9531C13.5375 12.3844 15.75 9.2625 16.3312 5.15625C16.3875 4.75312 16.3781 4.34063 16.3594 3.92813C16.35 3.68438 16.1906 3.4875 15.9375 3.49687C15.675 3.49687 15.75 3.76875 15.7031 3.9375C15.5625 4.425 15.4219 4.9125 15.2812 5.39062C14.9531 2.90625 14.925 2.90625 13.2562 2.6625C12.6 2.56875 12.4125 2.79375 12.45 3.4125C12.5156 4.49063 12.4125 5.5875 12.075 6.6C11.6719 7.81875 11.5219 9.16875 10.5094 10.2ZM6.51562 19.1719C8.69063 21.5344 13.4438 21.8719 16.6875 20.0062C19.7344 18.2437 21.9937 14.0906 21.2062 11.5594C17.3531 16.0969 12.6094 18.8906 6.51562 19.1719ZM19.3781 11.25C21.15 10.0969 21.4406 9.3375 20.4938 8.48438C20.2594 9.46875 19.7437 10.3219 19.3781 11.25Z" fill="#6C9526"/>
</svg>
