<svg width="24" height="24" viewBox="0 0 24 24" fill="none" xmlns="http://www.w3.org/2000/svg">
<path d="M12 22.2281C17.6488 22.2281 22.2281 17.6488 22.2281 12C22.2281 6.35117 17.6488 1.77188 12 1.77188C6.35117 1.77188 1.77188 6.35117 1.77188 12C1.77188 17.6488 6.35117 22.2281 12 22.2281Z" fill="#FCCA00"/>
<path d="M12 21.1781C17.0689 21.1781 21.1781 17.0689 21.1781 12C21.1781 6.93106 17.0689 2.82187 12 2.82187C6.93106 2.82187 2.82187 6.93106 2.82187 12C2.82187 17.0689 6.93106 21.1781 12 21.1781Z" fill="#252939"/>
<path d="M11.9812 9.00937C12.9562 7.875 14.0625 7.34062 15.4687 7.73437C16.6594 8.07187 17.4187 8.85937 17.7281 10.0594C18.0187 11.1656 17.6344 12.1312 17.0156 13.0125C15.7875 14.7281 14.0906 15.9 12.3375 17.0062C12.1125 17.1469 11.9062 17.175 11.6719 17.025C9.82499 15.8437 7.99686 14.6344 6.79686 12.7312C5.46561 10.6312 6.35624 8.2125 8.62499 7.69687C10.0031 7.37812 11.0812 7.9125 11.9812 9.00937Z" fill="#FCCA00"/>
</svg>
