<svg width="24" height="24" viewBox="0 0 24 24" fill="none" xmlns="http://www.w3.org/2000/svg">
<path d="M12 22.2281C17.6488 22.2281 22.2281 17.6488 22.2281 12C22.2281 6.35117 17.6488 1.77188 12 1.77188C6.35117 1.77188 1.77188 6.35117 1.77188 12C1.77188 17.6488 6.35117 22.2281 12 22.2281Z" fill="#EF3434"/>
<path d="M12 21.1781C17.0689 21.1781 21.1781 17.0689 21.1781 12C21.1781 6.93106 17.0689 2.82187 12 2.82187C6.93106 2.82187 2.82187 6.93106 2.82187 12C2.82187 17.0689 6.93106 21.1781 12 21.1781Z" fill="#252939"/>
<path d="M7.87501 21.2062C6.35626 19.6875 4.83751 18.1687 3.31876 16.65C4.64063 15.3281 5.97188 13.9969 7.29376 12.675C7.36876 12.6 7.38751 12.5344 7.36876 12.4219C7.18126 11.5219 7.30313 10.6687 7.73438 9.86249C7.84688 9.64686 7.98751 9.44999 8.11876 9.25311C8.87813 8.49374 9.63751 7.73436 10.3969 6.97499C10.4531 6.99374 10.4906 6.94686 10.5281 6.92811C11.0156 6.66561 11.6531 6.72186 12.0563 7.08749C12.6281 7.61249 13.1438 8.18436 13.5469 8.84061C13.6969 9.09374 13.8375 9.35624 13.8469 9.66561C13.8563 9.99374 13.6406 10.1906 13.3219 10.1812C13.1813 10.1719 13.05 10.1344 12.9281 10.0781C12.2906 9.80624 11.7844 9.36561 11.2875 8.89686C11.1938 8.80311 11.1469 8.81249 11.0625 8.90624C10.7719 9.20624 10.4813 9.49686 10.1906 9.78749C10.0875 9.89061 9.92813 9.98436 9.91876 10.0969C9.90938 10.2094 10.0969 10.3031 10.1906 10.4062C10.2 10.4156 10.2094 10.425 10.2188 10.4344C10.6781 10.9031 10.7344 11.6344 10.3688 12.1781C10.2469 12.3469 10.0875 12.4781 9.95626 12.6281C9.92813 12.6656 9.86251 12.6844 9.92813 12.75C10.1156 12.9281 10.3031 13.1156 10.4813 13.3031C10.5188 13.3406 10.5375 13.3406 10.5844 13.3031C10.8844 13.0125 11.1844 12.7125 11.3438 12.3187C11.6438 11.5875 11.5969 10.8844 11.2031 10.2C11.1844 10.1625 11.1375 10.1344 11.1844 10.0969C11.2219 10.0594 11.25 10.1062 11.2781 10.1156C11.2969 10.125 11.3156 10.1437 11.3438 10.1625C12.0094 10.6781 12.7031 11.1375 13.6125 11.0812C13.5094 11.4937 13.5281 11.8781 13.8 12.2156C14.0813 12.5531 14.4563 12.6469 14.9063 12.5906C14.7469 12.9 14.6156 13.1906 14.5594 13.5094C14.4281 14.2312 14.85 14.775 15.4406 14.8687C15.4594 14.8687 15.4969 14.8594 15.4875 14.9062C15.0281 15.3656 14.5594 15.8344 14.1 16.2937C14.0625 16.275 14.0438 16.3125 14.025 16.3219C13.4719 16.725 12.8625 16.9781 12.1875 17.0344C12.0844 17.0437 12.0094 17.0719 11.9344 17.1469C10.575 18.5062 9.22501 19.8562 7.87501 21.2062Z" fill="#EF3434"/>
<path d="M17.4094 12.975C17.2219 13.0687 17.0813 13.2281 16.9125 13.3406C16.5938 13.5656 16.275 13.7812 15.9094 13.9125C15.7688 13.9594 15.6094 14.0344 15.4875 13.9125C15.3656 13.7906 15.4406 13.6312 15.4875 13.4906C15.6375 13.0594 15.9 12.6937 16.1719 12.3375C16.3781 12.075 16.5938 11.8125 16.8375 11.5781C17.1094 11.3062 17.4938 11.2687 17.7844 11.475C18.0656 11.6812 18.1313 12.0562 17.9438 12.3937C17.9438 12.4031 17.9438 12.4125 17.9531 12.4219C17.775 12.6187 17.5875 12.7969 17.4094 12.975Z" fill="#EF3434"/>
<path d="M15.9938 7.09686C16.1719 7.54686 16.1344 7.74374 15.7781 8.09999C15.7594 8.11874 15.7406 8.13749 15.7219 8.15624C15.4031 8.44686 15.075 8.71874 14.7188 8.95311C14.6531 8.99999 14.6344 8.99061 14.6063 8.91561C14.4938 8.61561 14.3438 8.33436 14.1563 8.07186C14.1 7.99686 14.1094 7.94061 14.1656 7.86561C14.4094 7.55624 14.6531 7.25624 14.9438 6.97499C15.15 6.77811 15.4781 6.73124 15.7406 6.87186C15.7594 6.88124 15.7781 6.90936 15.8063 6.89061C15.8719 6.96561 15.9281 7.03124 15.9938 7.09686Z" fill="#EF3434"/>
<path d="M16.7344 10.3969C16.2469 10.8375 15.7406 11.2594 15.1406 11.55C14.9906 11.625 14.8313 11.6906 14.6625 11.6906C14.5313 11.6906 14.4656 11.625 14.4656 11.4937C14.4656 11.2969 14.5406 11.1187 14.6344 10.9406C14.9719 10.2937 15.4219 9.74062 15.9469 9.23437C16.2 8.99062 16.6313 9.01874 16.8938 9.27187C17.1469 9.52499 17.1563 9.95624 16.9125 10.2187C16.8469 10.2844 16.7906 10.3406 16.7344 10.3969Z" fill="#EF3434"/>
<path d="M13.0406 6.74062C12.8813 6.59062 12.7406 6.4125 12.5438 6.29062C12.4594 6.23437 12.4688 6.19687 12.5344 6.13125C12.8438 5.8125 13.1531 5.7375 13.4719 5.91562C13.8563 6.13125 13.9406 6.66562 13.6313 6.98437C13.4531 7.17187 13.4531 7.17187 13.2844 6.99375C13.2094 6.90937 13.125 6.825 13.0406 6.74062Z" fill="#EF3434"/>
</svg>
